<svg width="101" height="58" viewBox="0 0 101 58" fill="none" xmlns="http://www.w3.org/2000/svg">
<path d="M90.9012 40.1383C84.5442 40.5047 79.0497 42.7432 75.5409 46.1992C75.3553 46.3828 75.1222 46.5109 74.8678 46.5692C74.6134 46.6274 74.3478 46.6134 74.1008 46.5288C79.8866 43.3208 84.2386 38.4135 86.1523 32.5846L89.3827 22.7636L77.7185 25.4837C68.5504 27.6165 61.3038 33.3526 58.1182 40.7255C58.0916 40.7915 58.0409 40.8448 57.9764 40.8746C57.9118 40.9043 57.8383 40.9082 57.771 40.8855C60.0519 36.2765 61.169 31.1788 61.0245 26.0382C60.88 20.8976 59.4784 15.8707 56.9421 11.397L50.4892 0L44.0363 11.3826C41.5002 15.8563 40.0985 20.8831 39.9538 26.0236C39.809 31.1641 40.9256 36.2618 43.2059 40.8711C43.1463 40.8916 43.0812 40.8888 43.0237 40.8633C42.9661 40.8377 42.9203 40.7914 42.8955 40.7335C39.713 33.3526 32.4633 27.6133 23.2887 25.4757L11.6245 22.7556L14.8486 32.5766C16.7606 38.4023 21.1079 43.3064 26.8888 46.5144C26.6421 46.6 26.3764 46.6146 26.1218 46.5566C25.8673 46.4986 25.6341 46.3704 25.4488 46.1864C21.9479 42.7336 16.455 40.4967 10.1013 40.1303L0.51392 39.5799L3.99398 45.828C6.16042 49.7145 10.3781 52.6266 15.6406 54.0938L15.9606 54.1882H15.9878L17.215 54.6138L26.4264 57.793H26.444C42.2969 54.381 58.6944 54.381 74.5473 57.793H74.5665L83.6514 54.657L85.0307 54.177L85.3155 54.0922C90.5956 52.6298 94.8276 49.7129 96.9957 45.8168L100.476 39.5687L90.9012 40.1383Z" fill="#F8BA59"/>
</svg>
