<svg width="101" height="112" viewBox="0 0 101 112" fill="none" xmlns="http://www.w3.org/2000/svg">
<path d="M12.6277 77.2398H22.5975V88.1616H26.7656V62.6923H22.5975V73.6813H12.6277V62.6923H8.45966V88.1616H12.6277V77.2398Z" fill="black"/>
<path d="M53.9757 84.6207H32.3193V77.155H49.2972V73.6141H32.3193V66.2348H53.9757V62.6923H28.1336V88.1616H53.9757V84.6207Z" fill="black"/>
<path d="M22.0823 93.2465C21.4048 92.2702 20.507 91.4672 19.4615 90.9025C18.3718 90.2976 17.039 89.9904 15.5014 89.9904C13.6582 89.9904 12.0629 90.4704 10.7621 91.3937C9.46128 92.3169 8.46606 93.6161 7.78925 95.2337C7.11243 96.8514 6.77643 98.725 6.77643 100.819C6.77643 102.914 7.11723 104.781 7.78925 106.399C8.46126 108.016 9.46608 109.328 10.7621 110.26C12.0581 111.191 13.6582 111.671 15.5014 111.671C16.8566 111.671 18.0614 111.429 19.0631 110.956C20.0272 110.512 20.8853 109.868 21.5799 109.066C22.225 108.317 22.7281 107.456 23.0647 106.527C23.3816 105.667 23.5488 104.759 23.5591 103.842V103.595H20.0151V103.842C20.0151 104.441 19.9134 105.036 19.7143 105.602C19.5194 106.161 19.2239 106.68 18.8422 107.133C18.4574 107.586 17.98 107.951 17.4422 108.204C16.8338 108.478 16.1718 108.613 15.5046 108.599C14.5471 108.614 13.6112 108.314 12.8405 107.746C12.0709 107.175 11.4613 106.306 11.0277 105.17C10.5941 104.034 10.3653 102.554 10.3653 100.829C10.3653 99.1042 10.5877 97.629 11.0277 96.4818C11.4677 95.3345 12.0693 94.4897 12.8389 93.9217C13.613 93.3601 14.5484 93.0648 15.5046 93.0801C16.2845 93.058 17.0567 93.24 17.7446 93.6081C18.3517 93.9492 18.8651 94.4351 19.2391 95.0225C19.6122 95.6197 19.8518 96.2905 19.9415 96.989C19.9843 97.2589 20.0068 97.5317 20.0087 97.805V98.0514H23.5527V97.805C23.5483 97.2707 23.4856 96.7384 23.3655 96.2177C23.139 95.152 22.7028 94.142 22.0823 93.2465Z" fill="black"/>
<path d="M36.0058 99.3362H27.8536V90.256H24.324V111.384H27.8536V102.362H36.0058V111.384H39.5354V90.256H36.0058V99.3362Z" fill="black"/>
<path d="M45.3387 90.2144L39.6954 111.384H43.3419L44.6763 106.138H51.1164L52.4429 111.384H56.0749L50.4892 90.2144H45.3387ZM50.3564 103.127H45.4411L47.9068 93.4417L50.3564 103.127Z" fill="black"/>
<path d="M66.7391 103.576L62.4222 62.9131L62.3998 62.6923H56.7405V111.384H60.1294V73.0477L64.4495 111.167L64.4751 111.384H69.0848L73.3888 73.1181V111.384H76.7633V62.6923H71.1056L66.7391 103.576Z" fill="black"/>
<path d="M93.3988 70.6125C92.8484 68.2252 92.0132 66.2924 90.9187 64.8796C89.7987 63.4283 88.3875 62.6923 86.7299 62.6923H80.2722V111.384H83.8018V95.0145H86.7299C88.3635 95.0145 89.7699 94.2321 90.8899 92.6913C91.9876 91.1889 92.8276 89.1712 93.386 86.7008C93.9649 84.0371 94.2466 81.3175 94.226 78.5918C94.2507 75.9094 93.9733 73.2328 93.3988 70.6125ZM83.7986 69.0684H86.3779C86.8222 69.0571 87.2634 69.145 87.6695 69.3258C88.0755 69.5065 88.4362 69.7755 88.7251 70.1133C89.3651 70.8301 89.8547 71.9085 90.1795 73.3133C90.5043 74.7182 90.6771 76.5134 90.6771 78.5838C90.7015 80.3981 90.5298 82.2097 90.1651 83.9871C89.8307 85.4911 89.3315 86.6608 88.6819 87.464C88.0323 88.2672 87.3027 88.6416 86.3811 88.6416H83.8018L83.7986 69.0684Z" fill="black"/>
<path d="M90.9012 40.1383C84.5442 40.5047 79.0497 42.7432 75.5409 46.1992C75.3553 46.3828 75.1222 46.5109 74.8678 46.5692C74.6134 46.6274 74.3478 46.6134 74.1008 46.5288C79.8866 43.3208 84.2386 38.4135 86.1523 32.5846L89.3827 22.7636L77.7185 25.4837C68.5504 27.6165 61.3038 33.3526 58.1182 40.7255C58.0916 40.7915 58.0409 40.8448 57.9764 40.8746C57.9118 40.9043 57.8383 40.9082 57.771 40.8855C60.0519 36.2765 61.169 31.1788 61.0245 26.0382C60.88 20.8976 59.4784 15.8707 56.9421 11.397L50.4892 0L44.0363 11.3826C41.5002 15.8563 40.0985 20.8831 39.9538 26.0236C39.809 31.1641 40.9256 36.2618 43.2059 40.8711C43.1463 40.8916 43.0812 40.8888 43.0237 40.8633C42.9661 40.8377 42.9203 40.7914 42.8955 40.7335C39.713 33.3526 32.4633 27.6133 23.2887 25.4757L11.6245 22.7556L14.8486 32.5766C16.7606 38.4023 21.1079 43.3064 26.8888 46.5144C26.6421 46.6 26.3764 46.6146 26.1218 46.5566C25.8673 46.4986 25.6341 46.3704 25.4488 46.1864C21.9479 42.7336 16.455 40.4967 10.1013 40.1303L0.51392 39.5799L3.99398 45.828C6.16042 49.7145 10.3781 52.6266 15.6406 54.0938L15.9606 54.1882H15.9878L17.215 54.6138L26.4264 57.793H26.444C42.2969 54.381 58.6944 54.381 74.5473 57.793H74.5665L83.6514 54.657L85.0307 54.177L85.3155 54.0922C90.5956 52.6298 94.8276 49.7129 96.9957 45.8168L100.476 39.5687L90.9012 40.1383Z" fill="#F8BA59"/>
</svg>
