<svg width="143" height="32" viewBox="0 0 143 32" fill="none" xmlns="http://www.w3.org/2000/svg">
<g clip-path="url(#clip0)">
<path d="M-0.000183105 31V26.8616L0.648979 27.105C0.944052 27.2157 1.23175 27.3116 1.50469 27.3927C1.73337 27.4591 1.93993 27.496 2.12435 27.496C2.5522 27.496 2.8399 27.4001 2.98744 27.2157C3.05383 27.1345 3.26038 26.7731 3.26038 25.5116V9.85059H7.69386V25.6665C7.69386 27.5107 7.19223 28.964 6.20374 29.9746C5.65047 30.5352 4.97918 30.9483 4.18248 31.1992C3.19399 31.5164 2.12435 31.5164 1.11372 31.2729L-0.000183105 31Z" fill="black"/>
<path d="M20.6182 10.7431C20.1239 10.3448 19.5264 9.99808 18.833 9.72513C18.0805 9.42268 17.2691 9.27515 16.4207 9.27515C14.9749 9.27515 13.6987 9.59973 12.6143 10.2341C11.5225 10.8759 10.6742 11.7833 10.0914 12.9341C9.51602 14.0627 9.22095 15.3905 9.22095 16.8807C9.22095 18.4003 9.56028 19.7503 10.2168 20.901C10.8807 22.0518 11.7807 22.9518 12.8946 23.5715C14.0011 24.1911 15.2257 24.5083 16.5314 24.5083C17.7264 24.5083 18.8256 24.2059 19.792 23.6157C20.1018 23.4239 20.3821 23.2247 20.6329 23.0108L20.6624 24.2206H24.9041V9.62186H20.6329L20.6182 10.7431ZM19.8657 14.9774C20.1608 15.5381 20.3083 16.1799 20.3083 16.9028V17.102C20.3083 18.1642 19.9985 18.9978 19.3715 19.6396C18.7444 20.2814 17.9846 20.5912 17.0552 20.5912C15.9929 20.5912 15.2183 20.274 14.6798 19.6249C14.1118 18.9388 13.8315 18.0462 13.8315 16.9028C13.8315 15.7815 14.1118 14.8963 14.6872 14.2103C15.2404 13.5611 16.0076 13.2439 17.0552 13.2439C17.6527 13.2439 18.1838 13.3914 18.6781 13.6939C19.1871 14.0037 19.5707 14.4242 19.8657 14.9774Z" fill="black"/>
<path d="M31.7496 4.24414H27.3456V24.2059H31.7496V4.24414Z" fill="black"/>
<path d="M44.7255 10.7431C44.2312 10.3448 43.6337 9.99808 42.9403 9.72513C42.1878 9.42268 41.3764 9.27515 40.528 9.27515C39.0822 9.27515 37.806 9.59973 36.7216 10.2341C35.6298 10.8759 34.7815 11.7833 34.1987 12.9341C33.6233 14.0627 33.3282 15.3905 33.3282 16.8807C33.3282 18.4003 33.6676 19.7503 34.3241 20.901C34.988 22.0518 35.888 22.9518 37.0019 23.5715C38.1084 24.1911 39.333 24.5083 40.6387 24.5083C41.8337 24.5083 42.9329 24.2059 43.8993 23.6157C44.2091 23.4239 44.4894 23.2247 44.7402 23.0108L44.7697 24.2206H49.0114V9.62186H44.7402L44.7255 10.7431ZM43.973 14.9774C44.2681 15.5381 44.4156 16.1799 44.4156 16.9028V17.102C44.4156 18.1642 44.1058 18.9978 43.4788 19.6396C42.8517 20.2814 42.0919 20.5912 41.1624 20.5912C40.1002 20.5912 39.3256 20.274 38.7871 19.6249C38.2191 18.9388 37.9388 18.0462 37.9388 16.9028C37.9388 15.7815 38.2191 14.8963 38.7945 14.2103C39.3477 13.5611 40.1149 13.2439 41.1624 13.2439C41.76 13.2439 42.2911 13.3914 42.7854 13.6939C43.2944 14.0037 43.6779 14.4242 43.973 14.9774Z" fill="black"/>
<path d="M59.8853 9.27515C58.1223 9.27515 56.6764 9.7989 55.5625 10.839V9.62186H51.2471V29.5836H55.592L55.5699 23.2395C55.865 23.4682 56.1969 23.6674 56.551 23.8444C57.4584 24.2796 58.528 24.5009 59.7452 24.5009C61.0583 24.5009 62.2607 24.1764 63.3377 23.5419C64.4147 22.9075 65.2704 21.9928 65.8975 20.8273C66.5171 19.6765 66.8269 18.3339 66.8269 16.8438C66.8269 14.4389 66.1778 12.5578 64.9016 11.2521C63.618 9.93906 61.9361 9.27515 59.8853 9.27515ZM59.0223 13.2734C60.1067 13.2734 60.896 13.5832 61.4345 14.2176C61.9951 14.8742 62.2754 15.7889 62.2754 16.9323C62.2754 18.0388 61.9951 18.9093 61.4197 19.5953C60.8665 20.2445 60.0845 20.5617 59.0223 20.5617C58.4247 20.5617 57.8862 20.4142 57.392 20.1191C56.8904 19.8166 56.4994 19.4109 56.1969 18.8577C55.8945 18.3118 55.7396 17.6774 55.7396 16.9618V16.7626C55.7396 16.0545 55.8945 15.4274 56.1895 14.9037C56.492 14.3799 56.883 13.9889 57.3846 13.7012C57.901 13.4136 58.4321 13.2734 59.0223 13.2734Z" fill="black"/>
<path d="M76.8153 9.27515C75.0523 9.27515 73.6064 9.7989 72.4925 10.839V9.62186H68.1771V29.5836H72.522L72.4999 23.2395C72.795 23.4682 73.1269 23.6674 73.481 23.8444C74.3884 24.2796 75.458 24.5009 76.6752 24.5009C77.9883 24.5009 79.1907 24.1764 80.2677 23.5419C81.3447 22.9075 82.2004 21.9928 82.8275 20.8273C83.4471 19.6765 83.7569 18.3339 83.7569 16.8438C83.7569 14.4389 83.1078 12.5578 81.8316 11.2521C80.548 9.93906 78.8661 9.27515 76.8153 9.27515ZM75.9523 13.2734C77.0366 13.2734 77.826 13.5832 78.3645 14.2176C78.9251 14.8742 79.2054 15.7889 79.2054 16.9323C79.2054 18.0388 78.9251 18.9093 78.3497 19.5953C77.7965 20.2445 77.0145 20.5617 75.9523 20.5617C75.3547 20.5617 74.8162 20.4142 74.322 20.1191C73.8203 19.8166 73.4294 19.4109 73.1269 18.8577C72.8245 18.3118 72.6696 17.6774 72.6696 16.9618V16.7626C72.6696 16.0545 72.8245 15.4274 73.1195 14.9037C73.422 14.3799 73.813 13.9889 74.3146 13.7012C74.831 13.4136 75.3621 13.2734 75.9523 13.2734Z" fill="black"/>
<path d="M91.7829 9.27515C90.3666 9.27515 89.0756 9.59235 87.9396 10.212C86.7888 10.839 85.8815 11.7464 85.2397 12.9119C84.5979 14.0627 84.2733 15.4201 84.2733 16.9323C84.2733 18.2823 84.5463 19.5363 85.0921 20.6724C85.6454 21.8379 86.5233 22.7821 87.6962 23.4682C88.8543 24.1542 90.3002 24.5009 91.9969 24.5009C93.2288 24.5009 94.2984 24.3755 95.1837 24.1321C96.0836 23.8813 96.7844 23.5862 97.3303 23.2395L97.7951 22.9444L96.3418 19.5511L95.7148 19.8904C95.2648 20.1339 94.7558 20.3256 94.2099 20.4732C93.6714 20.6133 92.9559 20.6871 92.0854 20.6871C91.1264 20.6871 90.3887 20.4732 89.8871 20.0601C89.5256 19.7576 89.2379 19.2929 89.0388 18.6732H98.3483L98.4073 18.0905C98.4663 17.5077 98.4959 16.9397 98.4959 16.4012C98.4959 14.2029 97.9426 12.4546 96.8434 11.2079C95.7074 9.91693 94.0107 9.27515 91.7829 9.27515ZM91.6944 13.2144C92.528 13.2144 93.155 13.4062 93.5681 13.7824C93.8706 14.0553 94.055 14.5275 94.114 15.1766H88.9945C89.3781 13.8414 90.2559 13.2144 91.6944 13.2144Z" fill="black"/>
<path d="M111.545 10.2636C110.697 9.6071 109.501 9.27515 107.989 9.27515C106.802 9.27515 105.747 9.5776 104.854 10.1677C104.581 10.3448 104.338 10.5366 104.109 10.7505L104.094 9.62923H99.7272V24.2206H104.161V16.9692C104.161 16.1872 104.33 15.4938 104.662 14.9258C105.002 14.3504 105.422 13.9078 105.924 13.6054C106.418 13.3103 106.897 13.1627 107.355 13.1627C108.351 13.1627 108.646 13.5758 108.786 13.8857C109.074 14.5422 109.221 15.6782 109.221 17.2569V24.2206H113.655V17.1684C113.655 15.4864 113.522 14.0922 113.256 13.0152C112.969 11.8497 112.393 10.9202 111.545 10.2636Z" fill="black"/>
<path d="M129.153 13.0593C128.526 11.8937 127.626 10.9643 126.476 10.2856C125.325 9.61429 123.982 9.26758 122.485 9.26758C120.987 9.26758 119.637 9.60691 118.479 10.2856C117.314 10.9643 116.414 11.8937 115.787 13.0593C115.167 14.2101 114.857 15.4936 114.857 16.8731C114.857 18.2673 115.174 19.5656 115.809 20.7164C116.443 21.882 117.35 22.8115 118.516 23.4827C119.674 24.154 121.009 24.5007 122.492 24.5007C123.975 24.5007 125.31 24.1614 126.454 23.4827C127.604 22.8041 128.512 21.8746 129.139 20.7164C129.766 19.5656 130.09 18.2673 130.09 16.8731C130.083 15.4936 129.773 14.2174 129.153 13.0593ZM124.705 19.6542C124.181 20.3255 123.488 20.65 122.573 20.65C121.644 20.65 120.914 20.3107 120.323 19.6247C119.711 18.9017 119.409 18.0239 119.409 16.9395C119.409 15.8035 119.689 14.8961 120.264 14.1584C120.803 13.4724 121.504 13.133 122.396 13.133C123.333 13.133 124.071 13.4724 124.639 14.1806C125.244 14.9256 125.539 15.8256 125.539 16.9395C125.539 18.046 125.266 18.9386 124.705 19.6542Z" fill="black"/>
</g>
<g clip-path="url(#clip1)">
<path d="M117.253 3.28389V4.37769H118.347V3.28389H117.253Z" fill="#29D381"/>
<path d="M118.347 3.28389V4.37769H119.441V3.28389H118.347Z" fill="#28DD8B"/>
<path d="M119.442 2.19038V3.28418H120.536V2.19038H119.442Z" fill="#4BEF9D"/>
<path d="M119.442 3.28389V4.37769H120.536V3.28389H119.442Z" fill="#29D381"/>
<path d="M120.537 2.19038V3.28418H121.631V2.19038H120.537Z" fill="#28DD8B"/>
<path d="M121.63 2.19038V3.28418H122.724V2.19038H121.63Z" fill="#28DD8B"/>
<path d="M122.726 2.19038V3.28418H123.819V2.19038H122.726Z" fill="#28DD8B"/>
<path d="M123.819 3.28389V4.37769H124.913V3.28389H123.819Z" fill="#28DD8B"/>
<path d="M123.819 2.19038V3.28418H124.913V2.19038H123.819Z" fill="#4BEF9D"/>
<path d="M124.913 3.28389V4.37769H126.007V3.28389H124.913Z" fill="#28DD8B"/>
<path d="M133.668 5.47309V6.56689H134.762V5.47309H133.668Z" fill="#28DD8B"/>
<path d="M124.913 4.3791V5.4729H126.007V4.3791H124.913Z" fill="#28DD8B"/>
<path d="M123.819 4.3791V5.4729H124.913V4.3791H123.819Z" fill="#29D381"/>
<path d="M124.913 2.19038V3.28418H126.007V2.19038H124.913Z" fill="#28DD8B"/>
<path d="M124.913 1.09541V2.18921H126.007V1.09541H124.913Z" fill="#4BEF9D"/>
<path d="M123.819 1.09541V2.18921H124.913V1.09541H123.819Z" fill="#28DD8B"/>
<path d="M122.726 1.09541V2.18921H123.819V1.09541H122.726Z" fill="#28DD8B"/>
<path d="M122.726 3.28389V4.37769H123.819V3.28389H122.726Z" fill="#29D381"/>
<path d="M126.008 3.28389V4.37769H127.102V3.28389H126.008Z" fill="#28DD8B"/>
<path d="M126.008 4.3791V5.4729H127.102V4.3791H126.008Z" fill="#28DD8B"/>
<path d="M126.008 2.19038V3.28418H127.102V2.19038H126.008Z" fill="#4BEF9D"/>
<path d="M127.102 3.28389V4.37769H128.195V3.28389H127.102Z" fill="#28DD8B"/>
<path d="M127.102 4.3791V5.4729H128.195V4.3791H127.102Z" fill="#28DD8B"/>
<path d="M127.102 5.47309V6.56689H128.195V5.47309H127.102Z" fill="#28DD8B"/>
<path d="M128.197 5.47309V6.56689H129.291V5.47309H128.197Z" fill="#28DD8B"/>
<path d="M129.291 5.47309V6.56689H130.384V5.47309H129.291Z" fill="#28DD8B"/>
<path d="M130.386 5.47309V6.56689H131.48V5.47309H130.386Z" fill="#28DD8B"/>
<path d="M131.479 5.47309V6.56689H132.573V5.47309H131.479Z" fill="#28DD8B"/>
<path d="M132.573 5.47309V6.56689H133.667V5.47309H132.573Z" fill="#28DD8B"/>
<path d="M127.102 2.19038V3.28418H128.195V2.19038H127.102Z" fill="#28DD8B"/>
<path d="M128.197 3.28389V4.37769H129.291V3.28389H128.197Z" fill="#28DD8B"/>
<path d="M128.197 4.3791V5.4729H129.291V4.3791H128.197Z" fill="#28DD8B"/>
<path d="M128.197 2.19038V3.28418H129.291V2.19038H128.197Z" fill="#4BEF9D"/>
<path d="M128.197 1.09541V2.18921H129.291V1.09541H128.197Z" fill="#28DD8B"/>
<path d="M129.291 3.28389V4.37769H130.384V3.28389H129.291Z" fill="#28DD8B"/>
<path d="M129.291 4.3791V5.4729H130.384V4.3791H129.291Z" fill="#28DD8B"/>
<path d="M129.291 2.19038V3.28418H130.384V2.19038H129.291Z" fill="#4BEF9D"/>
<path d="M129.291 1.09541V2.18921H130.384V1.09541H129.291Z" fill="#4BEF9D"/>
<path d="M130.386 3.28389V4.37769H131.48V3.28389H130.386Z" fill="#28DD8B"/>
<path d="M130.386 4.3791V5.4729H131.48V4.3791H130.386Z" fill="#28DD8B"/>
<path d="M130.386 2.19038V3.28418H131.48V2.19038H130.386Z" fill="#4BEF9D"/>
<path d="M131.479 2.19038V3.28418H132.573V2.19038H131.479Z" fill="#28DD8B"/>
<path d="M131.479 1.09541V2.18921H132.573V1.09541H131.479Z" fill="#4BEF9D"/>
<path d="M131.479 0.00141525V1.09521H132.573V0.00141525H131.479Z" fill="#28DD8B"/>
<path d="M130.386 0.00141525V1.09521H131.48V0.00141525H130.386Z" fill="#28DD8B"/>
<path d="M129.291 0.00141525V1.09521H130.384V0.00141525H129.291Z" fill="#28DD8B"/>
<path d="M128.197 0.00141525V1.09521H129.291V0.00141525H128.197Z" fill="#28DD8B"/>
<path d="M127.102 0.00141525V1.09521H128.195V0.00141525H127.102Z" fill="#28DD8B"/>
<path d="M126.008 0.00141525V1.09521H127.102V0.00141525H126.008Z" fill="#28DD8B"/>
<path d="M124.913 0.00141525V1.09521H126.007V0.00141525H124.913Z" fill="#28DD8B"/>
<path d="M130.386 1.09541V2.18921H131.48V1.09541H130.386Z" fill="#28DD8B"/>
<path d="M131.479 3.28389V4.37769H132.573V3.28389H131.479Z" fill="#28DD8B"/>
<path d="M131.479 4.3791V5.4729H132.573V4.3791H131.479Z" fill="#28DD8B"/>
<path d="M132.573 3.28389V4.37769H133.667V3.28389H132.573Z" fill="#28DD8B"/>
<path d="M132.573 2.19038V3.28418H133.667V2.19038H132.573Z" fill="#4BEF9D"/>
<path d="M132.573 1.09541V2.18921H133.667V1.09541H132.573Z" fill="#4BEF9D"/>
<path d="M133.668 1.09541V2.18921H134.762V1.09541H133.668Z" fill="#4BEF9D"/>
<path d="M134.762 1.09541V2.18921H135.856V1.09541H134.762Z" fill="#4BEF9D"/>
<path d="M133.668 3.28389V4.37769H134.762V3.28389H133.668Z" fill="#28DD8B"/>
<path d="M133.668 4.3791V5.4729H134.762V4.3791H133.668Z" fill="#28DD8B"/>
<path d="M133.668 2.19038V3.28418H134.762V2.19038H133.668Z" fill="#28DD8B"/>
<path d="M134.762 3.28389V4.37769H135.856V3.28389H134.762Z" fill="#28DD8B"/>
<path d="M134.762 4.3791V5.4729H135.856V4.3791H134.762Z" fill="#28DD8B"/>
<path d="M134.762 5.47309V6.56689H135.856V5.47309H134.762Z" fill="#28DD8B"/>
<path d="M133.668 6.5666V7.6604H134.762V6.5666H133.668Z" fill="#28DD8B"/>
<path d="M132.573 4.3791V5.4729H133.667V4.3791H132.573Z" fill="#28DD8B"/>
<path d="M134.762 6.5666V7.6604H135.856V6.5666H134.762Z" fill="#28DD8B"/>
<path d="M134.762 2.19038V3.28418H135.856V2.19038H134.762Z" fill="#4BEF9D"/>
<path d="M135.857 3.28389V4.37769H136.95V3.28389H135.857Z" fill="#4BEF9D"/>
<path d="M135.857 4.3791V5.4729H136.95V4.3791H135.857Z" fill="#28DD8B"/>
<path d="M135.857 5.47309V6.56689H136.95V5.47309H135.857Z" fill="#28DD8B"/>
<path d="M136.951 3.28389V4.37769H138.045V3.28389H136.951Z" fill="#28DD8B"/>
<path d="M136.951 4.3791V5.4729H138.045V4.3791H136.951Z" fill="#4BEF9D"/>
<path d="M136.951 5.47309V6.56689H138.045V5.47309H136.951Z" fill="#28DD8B"/>
<path d="M136.951 6.5666V7.6604H138.045V6.5666H136.951Z" fill="#28DD8B"/>
<path d="M138.045 5.47309V6.56689H139.139V5.47309H138.045Z" fill="#4BEF9D"/>
<path d="M138.045 6.5666V7.6604H139.139V6.5666H138.045Z" fill="#28DD8B"/>
<path d="M138.045 7.66157V8.75537H139.139V7.66157H138.045Z" fill="#28DD8B"/>
<path d="M138.045 8.75557V9.84937H139.139V8.75557H138.045Z" fill="#28DD8B"/>
<path d="M138.045 9.85029V10.9441H139.139V9.85029H138.045Z" fill="#28DD8B"/>
<path d="M136.951 9.85029V10.9441H138.045V9.85029H136.951Z" fill="#28DD8B"/>
<path d="M136.951 8.75557V9.84937H138.045V8.75557H136.951Z" fill="#28DD8B"/>
<path d="M136.951 7.66157V8.75537H138.045V7.66157H136.951Z" fill="#28DD8B"/>
<path d="M135.857 6.5666V7.6604H136.95V6.5666H135.857Z" fill="#28DD8B"/>
<path d="M135.857 7.66157V8.75537H136.95V7.66157H135.857Z" fill="#28DD8B"/>
<path d="M139.139 6.5666V7.6604H140.233V6.5666H139.139Z" fill="#4BEF9D"/>
<path d="M139.139 7.66157V8.75537H140.233V7.66157H139.139Z" fill="#28DD8B"/>
<path d="M139.139 8.75557V9.84937H140.233V8.75557H139.139Z" fill="#28DD8B"/>
<path d="M139.139 9.85029V10.9441H140.233V9.85029H139.139Z" fill="#4BEF9D"/>
<path d="M138.045 10.9445V12.0383H139.139V10.9445H138.045Z" fill="#28DD8B"/>
<path d="M136.951 10.9445V12.0383H138.045V10.9445H136.951Z" fill="#28DD8B"/>
<path d="M135.857 12.7126V13.8064H136.95V12.7126H135.857Z" fill="#29D381"/>
<path d="M136.951 12.0395V13.1333H138.045V12.0395H136.951Z" fill="#28DD8B"/>
<path d="M135.857 11.6188V12.7126H136.95V11.6188H135.857Z" fill="#29D381"/>
<path d="M138.045 4.3791V5.4729H139.139V4.3791H138.045Z" fill="#28DD8B"/>
<path d="M135.857 2.19038V3.28418H136.95V2.19038H135.857Z" fill="#28DD8B"/>
<path d="M126.008 1.09541V2.18921H127.102V1.09541H126.008Z" fill="#4BEF9D"/>
<path d="M127.102 1.09541V2.18921H128.195V1.09541H127.102Z" fill="#4BEF9D"/>
</g>
<defs>
<clipPath id="clip0">
<rect width="143" height="30.9606" fill="white" transform="translate(0 0.481934)"/>
</clipPath>
<clipPath id="clip1">
<rect width="13.8062" height="22.9807" fill="white" transform="translate(117.252 13.8062) rotate(-90)"/>
</clipPath>
</defs>
</svg>
